<?xml version="1.0" encoding="utf-8"?>
<!-- Uploaded to SVGRepo https://www.svgrepo.com -->
<svg version="1.1" id="Layer_1" xmlns="http://www.w3.org/2000/svg" xmlns:xlink="http://www.w3.org/1999/xlink" x="0px" y="0px"
	 width="210px" height="256px" viewBox="0 0 210 256" enable-background="new 0 0 210 256" xml:space="preserve">
<path d="M174.55,144.5L174.55,144.5c-1.4-4-5-6.5-9.2-6.5H159V23c0-11.708-9.292-21-21-21H25C12.57,2,2,12.57,2,25v183
	c0,11.9,10.95,22,22.75,22l114.213,0c1.207,0,2.27,0.984,2.18,2.188c-0.095,1.266-1.153,1.812-2.393,1.812h-45.5L128,254h80
	L174.55,144.5z M82.05,220.2c-3.199,0-5.599-2.399-5.6-5.598c-0.001-3.045,2.557-5.602,5.602-5.602
	c3.199,0.001,5.598,2.401,5.598,5.6C87.55,217.8,85.25,220.2,82.05,220.2z M144,138h-19.65c-5.3,0-9.8,4.7-9.8,10l0,0
	c0,5.3,4.5,10,9.8,10h19.8v42H18V31h126V138z M82.519,103.367l-52.983,0.04c0.08-4.747,1.006-10.299,2.575-15.167l12.471,4.787
	c0.443-1.328,0.885-2.575,1.408-3.782l-12.511-4.707c3.178-7.644,8.167-14.282,14.362-19.552l8.167,10.621
	c1.046-0.885,2.092-1.77,3.218-2.494l-8.126-10.58c7.925-5.713,17.5-9.172,27.96-9.534v13.356c0.965,0,2.856,0,4.264,0V52.999
	c9.977,0.443,19.632,3.822,27.517,9.454l-8.207,10.58c1.126,0.805,2.172,1.609,3.218,2.494l8.167-10.621
	c6.276,5.27,11.224,11.908,14.483,19.552l-12.512,4.747c0.563,1.247,1.046,2.494,1.489,3.822l12.471-4.948
	c1.609,4.868,2.575,10.54,2.615,15.287l-44.213,0.04l5.713-28.684l-5.552-1.086L82.519,103.367z M86.461,111.654l1.81-8.247h-5.753
	l-1.73,7.764c-2.897,0.443-5.431,1.931-7.241,4.023c-1.81,2.092-2.897,4.828-2.897,7.805h23.897c0.04-1.69-0.282-3.259-0.885-4.707
	C92.335,115.154,89.72,112.74,86.461,111.654z"/>
</svg>
